<svg xmlns="http://www.w3.org/2000/svg" width="44" height="44" viewBox="0 0 44 44" fill="none">
  <path d="M15.5 8 5.2 18.2a1.4 1.4 0 0 0-.1 1.9l4.3 5 8.6-8.6z" fill="#dbe8fa" stroke="#7d9ac4" stroke-width="1.4" stroke-linejoin="round"/>
  <path d="M28.5 8 38.8 18.2a1.4 1.4 0 0 1 .1 1.9l-4.3 5-8.6-8.6z" fill="#dbe8fa" stroke="#7d9ac4" stroke-width="1.4" stroke-linejoin="round"/>
  <path d="M15.5 8h13l3.4 28.6a1.3 1.3 0 0 1-1.3 1.4H13.4a1.3 1.3 0 0 1-1.3-1.4z" fill="#f2f7ff" stroke="#7d9ac4" stroke-width="1.4" stroke-linejoin="round"/>
  <path d="M22 20.5V38" stroke="#7d9ac4" stroke-width="1.3"/>
  <path d="M15.5 8 22 21.2 28.5 8h-3.7L22 14.6 19.2 8z" fill="#16233b"/>
  <path d="M20 30.4 17.9 38h3l1.1-7.6zM24 30.4 26.1 38h-3l-1.1-7.6z" fill="#1c2b47"/>
  <path d="M12.5 24.4h19l.4 5.4H12.1z" fill="#1c2b47"/>
  <rect x="18.9" y="23.2" width="6.2" height="7.6" rx="1.7" fill="#0d1730"/>
</svg>
